<?xml version="1.0"?>
<svg xmlns="http://www.w3.org/2000/svg" height="512px" viewBox="0 0 464 464" width="512px" class="hovered-paths"><g><path d="m267.308594 416.003906 44.691406-44.691406 12.6875 12.6875-44.691406 44.691406zm0 0" data-original="#000000" class="hovered-path active-path" data-old_color="#000000" fill="#3B53AF"/><path d="m243.308594 392.003906 44.691406-44.691406 12.6875 12.6875-44.691406 44.691406zm0 0" data-original="#000000" class="hovered-path active-path" data-old_color="#000000" fill="#3B53AF"/><path d="m219.308594 368.003906 44.691406-44.691406 12.6875 12.6875-44.691406 44.691406zm0 0" data-original="#000000" class="hovered-path active-path" data-old_color="#000000" fill="#3B53AF"/><path d="m195.308594 344.003906 44.691406-44.691406 12.6875 12.6875-44.6875 44.691406zm0 0" data-original="#000000" class="hovered-path active-path" data-old_color="#000000" fill="#3B53AF"/><path d="m147.3125 72 132.6875 132.6875 33.648438-33.648438c-12.839844-9.671874-23.359376-22.199218-30.617188-36.695312l-99.03125-99.03125zm0 0" data-original="#000000" class="hovered-path active-path" data-old_color="#000000" fill="#3B53AF"/><path d="m376 176c48.519531 0 88-39.480469 88-88s-39.480469-88-88-88-88 39.480469-88 88 39.480469 88 88 88zm40-40c-4.414062 0-8-3.574219-8-8s3.585938-8 8-8 8 3.574219 8 8-3.585938 8-8 8zm-80-96c4.414062 0 8 3.574219 8 8s-3.585938 8-8 8-8-3.574219-8-8 3.585938-8 8-8zm-8 64c0-7.304688 2.839844-14.167969 8-19.3125l10.34375-10.34375 11.3125 11.3125-10.34375 10.34375c-2.105469 2.105469-3.3125 5.015625-3.3125 8 0 3.023438 1.175781 5.855469 3.320312 8l12.679688 12.6875 12.6875-12.6875c2.136719-2.144531 3.3125-4.976562 3.3125-8s-1.175781-5.855469-3.320312-8l-4.679688-4.6875c-5.160156-5.160156-8-12.023438-8-19.3125 0-7.304688 2.839844-14.167969 8-19.3125l24-24 16 16 10.34375-10.34375 11.3125 11.3125-10.671875 10.671875c3.222656 4.558594 5.015625 9.96875 5.015625 15.671875 0 7.289062-2.839844 14.152344-8 19.3125l-10.34375 10.34375-11.3125-11.3125 10.34375-10.34375c2.136719-2.144531 3.3125-4.976562 3.3125-8s-1.175781-5.855469-3.320312-8l-12.679688-12.6875-12.6875 12.6875c-2.105469 2.105469-3.3125 5.015625-3.3125 8 0 3.023438 1.175781 5.855469 3.320312 8l4.679688 4.6875c5.160156 5.160156 8 12.023438 8 19.3125s-2.839844 14.152344-8 19.3125l-24 24-16-16-10.34375 10.34375-11.3125-11.3125 10.664062-10.671875c-3.214843-4.558594-5.007812-9.96875-5.007812-15.671875zm0 0" data-original="#000000" class="hovered-path active-path" data-old_color="#000000" fill="#3B53AF"/><path d="m432 280c0 8.835938-7.164062 16-16 16s-16-7.164062-16-16 7.164062-16 16-16 16 7.164062 16 16zm0 0" data-original="#000000" class="hovered-path active-path" data-old_color="#000000" fill="#3B53AF"/><path d="m171.308594 320.003906 44.691406-44.691406 12.6875 12.691406-44.6875 44.6875zm0 0" data-original="#000000" class="hovered-path active-path" data-old_color="#000000" fill="#3B53AF"/><path d="m387.953125 191.257812c-3.929687.453126-7.90625.742188-11.953125.742188-17.542969 0-34.0625-4.40625-48.574219-12.113281l-47.425781 47.425781-155.3125-155.3125 59.3125-59.3125 89.007812 89.007812c-.59375-4.496093-1.007812-9.039062-1.007812-13.695312 0-4.046875.289062-8.015625.742188-11.945312l-67.085938-67.085938c-11.566406-11.5625-31.746094-11.5625-43.3125 0l-153.375 153.375c-5.695312 5.703125-8.96875 13.59375-8.96875 21.65625s3.273438 15.953125 8.96875 21.65625l249.375 249.375c11.566406 11.5625 31.746094 11.5625 43.3125 0l153.375-153.375c5.695312-5.703125 8.96875-13.59375 8.96875-21.65625s-3.273438-15.953125-8.96875-21.65625zm-46.296875-4.914062 48 48-11.3125 11.3125-48-48zm-24 24 48 48-11.3125 11.3125-48-48zm-208-128 96 96-11.3125 11.3125-96-96zm-24 24 96 96-11.3125 11.3125-96-96zm-75.3125 80 32-32 11.3125 11.3125-32 32zm24 24 32-32 11.3125 11.3125-32 32zm24 24 32-32 11.3125 11.3125-32 32zm35.3125 35.3125-11.3125-11.3125 32-32 11.3125 11.3125zm186.34375 181.65625-131.3125-131.3125 67.3125-67.3125 131.3125 131.3125zm82.34375-77.65625-104-104 11.3125-11.3125 104 104zm24-24-104-104 11.3125-11.3125 104 104zm29.65625-37.65625c-17.648438 0-32-14.351562-32-32s14.351562-32 32-32 32 14.351562 32 32-14.351562 32-32 32zm0 0" data-original="#000000" class="hovered-path active-path" data-old_color="#000000" fill="#3B53AF"/></g> </svg>
